<svg xmlns="http://www.w3.org/2000/svg" viewBox="20 -6 160 168" role="img" aria-label="GENU avatar">
  <!-- head-only GENU for avatars / chat bubbles (48 px and up). Same shapes as GENU-icon.svg. -->
  <circle cx="48" cy="46" r="8" fill="#4548c4"/><circle cx="152" cy="46" r="8" fill="#4548c4"/>
  <line x1="54" y1="54" x2="62" y2="64" stroke="#4548c4" stroke-width="5"/><line x1="146" y1="54" x2="138" y2="64" stroke="#4548c4" stroke-width="5"/>
  <rect x="34" y="38" width="132" height="118" rx="46" fill="#6468f0"/>
  <path d="M58 62 Q80 46 112 52" stroke="#fff" stroke-width="7" fill="none" stroke-linecap="round" opacity="0.5"/>
  <rect x="57" y="68" width="86" height="58" rx="28" fill="#0c0a1c"/>
  <g fill="#9ea2ff" shape-rendering="crispEdges">
    <rect x="80" y="89" width="5" height="5"/><rect x="75" y="94" width="5" height="5"/><rect x="85" y="94" width="5" height="5"/><rect x="70" y="99" width="5" height="5"/><rect x="90" y="99" width="5" height="5"/>
    <rect x="116" y="89" width="5" height="5"/><rect x="111" y="94" width="5" height="5"/><rect x="121" y="94" width="5" height="5"/><rect x="106" y="99" width="5" height="5"/><rect x="126" y="99" width="5" height="5"/>
  </g>
  <g fill="#6b6fd6" shape-rendering="crispEdges">
    <rect x="85" y="113" width="5" height="5"/><rect x="90" y="117" width="5" height="5"/><rect x="95" y="119" width="5" height="5"/><rect x="100" y="119" width="5" height="5"/><rect x="105" y="117" width="5" height="5"/><rect x="110" y="113" width="5" height="5"/>
  </g>
  <circle cx="100" cy="9" r="8" fill="#c9caff"/>
</svg>
