<svg viewBox="-8 -10 216 236" xmlns="http://www.w3.org/2000/svg" role="img" aria-labelledby="genu-t"><title id="genu-t">GENU</title><desc>GENU, the GenuDo mascot: a friendly floating indigo robot with a dark visor and pixel eyes, smiling.</desc><defs><radialGradient id="genu-haze"><stop offset="0%" stop-color="#6468f0" stop-opacity="0.6"></stop><stop offset="70%" stop-color="#6468f0" stop-opacity="0"></stop></radialGradient><radialGradient id="genu-sglow"><stop offset="0%" stop-color="#6468f0" stop-opacity="0.85"></stop><stop offset="100%" stop-color="#6468f0" stop-opacity="0"></stop></radialGradient><radialGradient id="genu-shadow"><stop offset="0%" stop-color="#000" stop-opacity="0.55"></stop><stop offset="100%" stop-color="#000" stop-opacity="0"></stop></radialGradient><radialGradient id="genu-vol" cx="32%" cy="22%" r="95%"><stop offset="0%" stop-color="#fff" stop-opacity="0.18"></stop><stop offset="45%" stop-color="#fff" stop-opacity="0"></stop><stop offset="80%" stop-color="#000" stop-opacity="0.08"></stop><stop offset="100%" stop-color="#000" stop-opacity="0.24"></stop></radialGradient><linearGradient id="genu-turn" x1="1" x2="0" y1="0" y2="0"><stop offset="0%" stop-color="#000" stop-opacity="0.34"></stop><stop offset="45%" stop-color="#000" stop-opacity="0"></stop><stop offset="85%" stop-color="#fff" stop-opacity="0"></stop><stop offset="100%" stop-color="#fff" stop-opacity="0.16"></stop></linearGradient><clipPath id="genu-head"><rect x="34" y="38" width="132" height="118" rx="46"></rect></clipPath><clipPath id="genu-visor"><rect x="57" y="68" width="86" height="58" rx="28"></rect></clipPath><clipPath id="genu-body"><path d="M58 150 L63 118 Q100 110 137 118 L142 150 L148 188 Q148 218 100 218 Q52 218 52 188 Z"></path></clipPath></defs><g transform="translate(0 0) translate(100 224) rotate(0) scale(1 1) translate(-100 -224)"><path d="M 14 150 A 86 24 0 0 1 186 150" stroke="#4548c4" stroke-opacity="0.28" stroke-width="2" fill="none"></path><g><circle cx="102.27024154137854" cy="126.00836380996682" r="3.000348492081951" fill="#8a8df0"></circle></g><g transform="translate(0 0) rotate(14 60 153)"><path d="M40 130 C 22 140 16 168 22 196 C 36 192 46 168 48 142 Z" fill="#a9abff" transform="translate(16 17)"></path></g><g transform="translate(0 0) rotate(-14 140 153)"><path d="M40 130 C 22 140 16 168 22 196 C 36 192 46 168 48 142 Z" fill="#4548c4" transform="translate(184 17) scale(-1 1)"></path></g><path d="M58 150 L63 118 Q100 110 137 118 L142 150 L148 188 Q148 218 100 218 Q52 218 52 188 Z" fill="#6468f0"></path><g clip-path="url(#genu-body)"><g transform="translate(100 192) scale(1 1) translate(-100 -192)" opacity="1"><circle cx="100" cy="172" r="6" fill="#ffe14d"></circle></g><path d="M58 150 L63 118 Q100 110 137 118 L142 150 L148 188 Q148 218 100 218 Q52 218 52 188 Z" fill="url(#genu-vol)"></path><path d="M58 150 L63 118 Q100 110 137 118 L142 150 L148 188 Q148 218 100 218 Q52 218 52 188 Z" fill="url(#genu-turn)" opacity="0"></path><path d="M62 184 Q63 203 78 211" stroke="#a9abff" stroke-width="5" fill="none" stroke-linecap="round" opacity="0.45"></path></g><g transform="rotate(0 100 150)"><g><line x1="53.99564285931388" y1="54" x2="61.99564285931388" y2="64" stroke="#4548c4" stroke-width="5"></line><circle cx="47.99564285931388" cy="46" r="8" fill="#4548c4"></circle></g><g><line x1="146.00435714068612" y1="54" x2="138.00435714068612" y2="64" stroke="#4548c4" stroke-width="5"></line><circle cx="152.00435714068612" cy="46" r="8" fill="#4548c4"></circle></g><rect x="34" y="38" width="132" height="118" rx="46" fill="#6468f0"></rect><rect x="34" y="38" width="132" height="118" rx="46" fill="url(#genu-vol)"></rect><g clip-path="url(#genu-head)"><rect x="34" y="38" width="132" height="118" fill="url(#genu-turn)" opacity="0"></rect><path d="M58 62 Q80 46 112 52" transform="translate(0 0)" stroke="#fff" stroke-width="7" fill="none" stroke-linecap="round" opacity="0.5"></path></g><g clip-path="url(#genu-head)" opacity="1"><rect x="57" y="68" width="86" height="58" rx="28" fill="#0c0a1c"></rect><rect x="57" y="68" width="86" height="58" rx="28" fill="none" stroke="#fff" stroke-width="1.5" opacity="0.14"></rect><g clip-path="url(#genu-visor)"><g shape-rendering="crispEdges"><rect x="80.5" y="89" width="5" height="5" fill="#9ea2ff"></rect><rect x="75.5" y="94" width="5" height="5" fill="#9ea2ff"></rect><rect x="85.5" y="94" width="5" height="5" fill="#9ea2ff"></rect><rect x="70.5" y="99" width="5" height="5" fill="#9ea2ff"></rect><rect x="90.5" y="99" width="5" height="5" fill="#9ea2ff"></rect><rect x="116.5" y="89" width="5" height="5" fill="#9ea2ff"></rect><rect x="111.5" y="94" width="5" height="5" fill="#9ea2ff"></rect><rect x="121.5" y="94" width="5" height="5" fill="#9ea2ff"></rect><rect x="106.5" y="99" width="5" height="5" fill="#9ea2ff"></rect><rect x="126.5" y="99" width="5" height="5" fill="#9ea2ff"></rect><rect x="85" y="113" width="5" height="5" fill="#6b6fd6"></rect><rect x="90" y="117" width="5" height="5" fill="#6b6fd6"></rect><rect x="95" y="119" width="5" height="5" fill="#6b6fd6"></rect><rect x="100" y="119" width="5" height="5" fill="#6b6fd6"></rect><rect x="105" y="117" width="5" height="5" fill="#6b6fd6"></rect><rect x="110" y="113" width="5" height="5" fill="#6b6fd6"></rect></g></g></g></g><path d="M 14 150 A 86 24 0 0 0 186 150" stroke="#4548c4" stroke-opacity="0.42" stroke-width="2" fill="none"></path><g><circle cx="173.3171088971175" cy="162.54449349433582" r="5.427224674716792" fill="#c9caff"></circle></g><g><circle cx="24.412649561503912" cy="161.44714269569735" r="4.47696427898739" fill="#a9abff"></circle></g><g><circle cx="100" cy="9.751118273495003" r="8" fill="#c9caff"></circle></g></g></svg>
